<?xml version="1.0" standalone="no"?>
<!DOCTYPE svg PUBLIC "-//W3C//DTD SVG 20010904//EN"
 "http://www.w3.org/TR/2001/REC-SVG-20010904/DTD/svg10.dtd">
<svg version="1.0" xmlns="http://www.w3.org/2000/svg"
 width="512.000000pt" height="512.000000pt" viewBox="0 0 512.000000 512.000000"
 preserveAspectRatio="xMidYMid meet">

<g transform="translate(0.000000,512.000000) scale(0.100000,-0.100000)"
fill="#000000" stroke="none">
<path d="M3278 4140 c-75 -14 -76 -15 -87 -51 -17 -56 -87 -143 -152 -189
l-59 -41 0 -82 c-1 -81 -10 -142 -49 -327 -11 -52 -24 -134 -27 -181 l-7 -87
-58 -6 c-33 -3 -85 -9 -117 -12 l-58 -6 8 73 c5 41 24 166 43 279 49 284 51
310 32 310 -36 0 -150 43 -197 75 -29 19 -53 35 -54 35 -1 0 11 -38 26 -85 16
-47 33 -120 38 -163 8 -68 31 -495 27 -498 -1 -1 -36 -4 -77 -8 l-75 -6 -48
197 c-50 204 -77 350 -77 415 l0 37 -72 -34 c-40 -19 -79 -35 -86 -35 -9 0
-12 -6 -7 -17 79 -202 173 -517 157 -527 -4 -2 -39 -7 -78 -11 -57 -6 -77 -4
-105 10 -56 28 -69 45 -69 86 0 21 -4 40 -8 43 -11 7 -165 -40 -217 -66 -44
-22 -75 -47 -75 -59 0 -19 53 -40 161 -64 62 -15 118 -30 122 -34 5 -5 -23
-32 -62 -60 -130 -96 -202 -200 -231 -331 -69 -312 -128 -476 -299 -825 -96
-197 -110 -230 -121 -306 -17 -114 -9 -231 25 -364 28 -109 28 -110 11 -169
-24 -80 -84 -145 -143 -153 -38 -5 -43 -3 -54 20 -13 29 -4 145 30 377 22 144
26 220 13 220 -4 0 -100 -113 -212 -252 -269 -330 -321 -390 -399 -454 -75
-62 -101 -69 -101 -24 0 46 30 111 150 325 122 216 161 277 256 400 127 165
193 285 229 414 19 72 28 89 95 176 101 132 157 243 189 372 38 154 39 150
-25 105 -21 -16 -79 -46 -129 -66 -210 -86 -260 -121 -359 -245 -85 -108 -118
-166 -221 -386 -111 -236 -116 -250 -562 -1545 -58 -168 -107 -313 -110 -322
-5 -17 121 -18 2545 -18 2014 0 2552 3 2558 12 9 15 7 54 -7 153 -5 39 -20
149 -34 245 -53 378 -103 633 -162 835 -39 134 -71 201 -117 242 -77 70 -282
208 -371 250 -31 15 -39 29 -90 162 -54 139 -147 362 -222 536 -95 221 -192
355 -423 585 -176 176 -251 226 -390 262 l-105 27 -17 -37 c-23 -50 -53 -72
-98 -72 -21 0 -50 -4 -64 -10 -26 -10 -34 -2 -17 15 12 13 54 169 86 322 14
67 37 152 50 188 37 97 131 280 187 363 27 41 48 74 46 75 -1 1 -37 -4 -80
-13z m-938 -940 c0 -5 -4 -10 -10 -10 -5 0 -10 5 -10 10 0 6 5 10 10 10 6 0
10 -4 10 -10z m60 -20 c0 -13 -20 -13 -40 0 -12 8 -9 10 13 10 15 0 27 -4 27
-10z m555 0 c3 -5 1 -10 -4 -10 -6 0 -11 5 -11 10 0 6 2 10 4 10 3 0 8 -4 11
-10z m133 -217 c121 -92 254 -215 324 -298 85 -101 115 -168 127 -290 18 -174
56 -281 132 -374 72 -87 89 -120 89 -176 0 -61 -31 -114 -67 -115 -12 0 -25
33 -73 185 -33 109 -84 209 -103 202 -7 -2 -15 -41 -21 -100 -7 -78 -5 -109 8
-164 9 -37 21 -86 26 -108 12 -54 3 -517 -11 -580 -18 -84 -169 -537 -192
-579 -12 -22 -27 -41 -34 -43 -37 -12 -25 217 19 387 34 130 57 311 58 446 0
102 -16 164 -75 283 -63 127 -64 152 -25 431 15 104 11 332 -6 391 -51 170
-181 327 -379 459 -44 29 -82 55 -84 57 -2 1 4 12 14 23 14 16 30 19 92 18 40
0 77 2 80 6 10 10 11 9 101 -61z"/>
</g>
</svg>
